<svg width="357" height="50" viewBox="0 0 357 50" fill="none" xmlns="http://www.w3.org/2000/svg">
<path d="M42.2795 47.4794H48.0454C48.6019 47.4794 49.0518 47.0298 49.0518 46.4736V1.01476C49.0518 0.458577 48.6019 0.00890197 48.0454 0.00890197H41.3146C40.9357 0.00890197 40.6101 0.204156 40.4325 0.535497L25.408 28.1256C25.2244 28.4569 24.9048 28.6522 24.5259 28.6522C24.147 28.6522 23.8214 28.4569 23.6438 28.1256L8.61929 0.535497C8.43578 0.204156 8.1161 0.00890197 7.73723 0.00890197H1.00637C0.449906 0.00890197 0 0.458577 0 1.01476V46.4736C0 47.0298 0.449906 47.4794 1.00637 47.4794H6.77229C7.32876 47.4794 7.77867 47.0298 7.77867 46.4736V18.422C7.77867 17.9546 8.0865 17.5641 8.53641 17.4457C8.98632 17.3333 9.44806 17.5286 9.6671 17.9368L23.6498 43.6098C23.8333 43.9412 24.1529 44.1364 24.5318 44.1364C24.9107 44.1364 25.2363 43.9412 25.4139 43.6098L39.3965 17.9368C39.6215 17.5286 40.0773 17.3274 40.5272 17.4457C40.9771 17.5641 41.285 17.9546 41.285 18.422V46.4736C41.2731 47.0238 41.729 47.4794 42.2795 47.4794Z" fill="#222222"/>
<path d="M121.434 8.84862H133.895C154.816 8.84862 153.62 41.2905 133.895 41.2905H121.434C120.753 41.2905 120.196 40.7343 120.196 40.0538V10.0911C120.191 9.40479 120.747 8.84862 121.434 8.84862ZM133.569 48.8048C165.199 48.8048 164.353 1.33428 133.569 1.33428H113.91C113.229 1.33428 112.672 1.89046 112.672 2.57089V47.5682C112.672 48.2486 113.229 48.8048 113.91 48.8048H133.569Z" fill="#222222"/>
<path d="M334.512 0.133168C320.725 0.133168 309.566 11.3041 309.566 25.0666C309.566 38.835 320.725 50 334.512 50C336.419 50 338.272 49.7811 340.047 49.3787C340.616 49.2486 341.012 48.7575 341.012 48.1717V42.7401C341.012 42.3377 340.841 41.9886 340.515 41.7461C340.19 41.5035 339.805 41.4384 339.42 41.5508C337.863 42.0182 336.211 42.2608 334.512 42.2608C324.999 42.2608 317.298 34.5631 317.298 25.0607C317.298 15.5583 324.999 7.85459 334.512 7.85459C339.686 7.85459 344.333 10.1503 347.495 13.7714C347.731 14.0377 348.033 14.1856 348.389 14.1974C348.744 14.2092 349.057 14.085 349.306 13.8365L353.03 10.1148C353.497 9.64739 353.515 8.90187 353.077 8.41077C348.501 3.34007 341.883 0.133168 334.512 0.133168Z" fill="#222222"/>
<path d="M101.851 11.4224C108.114 21.0964 107.001 34.1489 98.5239 42.6217C88.7739 52.3667 72.9561 52.3786 63.1943 42.6217C53.4443 32.8768 53.4443 17.0552 63.1943 7.31025C71.6715 -1.16262 84.7366 -2.26906 94.4096 3.985C94.7352 4.19801 94.9306 4.5116 94.972 4.89619C95.0135 5.28078 94.8891 5.62988 94.6168 5.90205L90.7393 9.77755C90.3427 10.174 89.7507 10.2568 89.2594 9.98464C82.7179 6.32214 74.2822 7.26883 68.7175 12.8365C62.0044 19.5462 62.0044 30.4213 68.7116 37.1191C75.4247 43.8288 86.3054 43.8288 93.0185 37.1191C98.589 31.5514 99.5362 23.12 95.8659 16.576C95.5877 16.0849 95.6705 15.4932 96.0731 15.0968L99.9447 11.2272C100.217 10.955 100.566 10.8307 100.951 10.8722C101.33 10.9077 101.644 11.097 101.851 11.4224Z" fill="#222222"/>
<path d="M249.018 47.5682V42.5271C249.018 41.8466 248.462 41.2905 247.781 41.2905H223.196C222.515 41.2905 221.958 40.7343 221.958 40.0538V2.57089C221.958 1.89046 221.402 1.33428 220.721 1.33428H215.678C214.997 1.33428 214.44 1.89046 214.44 2.57089V47.5682C214.44 48.2486 214.997 48.8048 215.678 48.8048H247.781C248.462 48.8048 249.018 48.2486 249.018 47.5682Z" fill="#222222"/>
<path d="M298.798 11.4224C305.061 21.0964 303.948 34.1489 295.471 42.6217C285.721 52.3667 269.903 52.3786 260.141 42.6217C250.392 32.8768 250.392 17.0552 260.141 7.31025C268.619 -1.16262 281.684 -2.26906 291.357 3.985C291.682 4.19801 291.878 4.5116 291.913 4.89619C291.955 5.28078 291.83 5.62988 291.558 5.90205L287.686 9.77755C287.29 10.174 286.698 10.2568 286.207 9.98464C279.665 6.32214 271.229 7.26883 265.665 12.8365C258.952 19.5462 258.952 30.4213 265.659 37.1191C272.372 43.8288 283.253 43.8288 289.966 37.1191C295.536 31.5514 296.483 23.12 292.813 16.576C292.535 16.0849 292.618 15.4932 293.014 15.0968L296.886 11.2272C297.158 10.955 297.508 10.8307 297.892 10.8722C298.271 10.9077 298.585 11.097 298.798 11.4224Z" fill="#222222"/>
<path d="M347.305 32.5868C347.986 32.5868 348.542 33.143 348.542 33.8234V47.5682C348.542 48.2486 349.099 48.8048 349.78 48.8048H354.823C355.504 48.8048 356.061 48.2486 356.061 47.5682V26.3091C356.061 25.6287 355.504 25.0725 354.823 25.0725H333.453C332.772 25.0725 332.216 25.6287 332.216 26.3091V31.3502C332.216 32.0307 332.772 32.5868 333.453 32.5868H347.305Z" fill="#222222"/>
<path fill-rule="evenodd" clip-rule="evenodd" d="M183.326 41.6336L192.312 48.8048L183.326 27.741V27.7469V41.6336Z" fill="#FF8E42"/>
<path fill-rule="evenodd" clip-rule="evenodd" d="M174.339 48.8048L183.326 41.6336V27.7469L174.339 48.8048Z" fill="#FF6600"/>
<path fill-rule="evenodd" clip-rule="evenodd" d="M183.326 41.6336L174.339 48.8048L183.326 45.5979L192.312 48.8048L183.326 41.6336Z" fill="#D65104"/>
<path d="M200.179 48.8048H205.756C206.182 48.8048 206.555 48.6096 206.786 48.2486C207.023 47.8936 207.058 47.4735 206.892 47.083L187.736 2.08571C187.535 1.61828 187.102 1.33428 186.593 1.33428H179.963C179.454 1.33428 179.022 1.61828 178.827 2.08571C172.439 17.0966 166.046 32.0721 159.658 47.083C159.492 47.4794 159.528 47.8936 159.765 48.2486C160.001 48.6036 160.368 48.8048 160.801 48.8048H166.377C166.886 48.8048 167.318 48.5208 167.52 48.0534C174.653 31.3325 174.825 30.9242 182.13 13.7004C182.331 13.233 182.763 12.949 183.272 12.943C183.781 12.943 184.214 13.2271 184.415 13.6945C191.773 30.942 191.809 31.0544 199.043 48.0475C199.238 48.5208 199.67 48.8048 200.179 48.8048Z" fill="#222222"/>
</svg>
