<svg width="400" height="44" viewBox="0 0 400 44" fill="none" xmlns="http://www.w3.org/2000/svg">
<path fill-rule="evenodd" clip-rule="evenodd" d="M177.422 43.854L206.322 0.230957L235.223 43.854H227.618L206.322 11.711L185.027 43.854H177.422ZM51.4359 43.854V17.325L32.1709 43.854H26.3059L6.9879 17.379V43.854H0.368896V5.96996H7.0409L29.5349 36.9109L51.9199 5.96996H58.0549V43.853H51.4359V43.854ZM75.3499 12.032H105.591C107.334 12.032 108.759 13.456 108.759 15.199V34.6239C108.759 36.3669 107.334 37.792 105.591 37.792H75.3499C73.6069 37.792 72.1819 36.3669 72.1819 34.6239V15.199C72.1819 13.456 73.6069 12.032 75.3499 12.032ZM75.3499 5.96996H105.591C110.667 5.96996 114.82 10.123 114.82 15.199V34.6239C114.82 39.6999 110.667 43.853 105.591 43.853H75.3499C70.2739 43.853 66.1209 39.6999 66.1209 34.6239V15.199C66.1209 10.123 70.2739 5.96996 75.3499 5.96996ZM130.572 12.032V37.792H163.98C165.723 37.792 167.148 36.3669 167.148 34.6239V15.199C167.148 13.456 165.723 12.032 163.98 12.032H130.572V12.032ZM124.511 43.854V5.96996H163.98C169.057 5.96996 173.209 10.123 173.209 15.199V34.6239C173.209 39.6999 169.057 43.853 163.98 43.853H124.511V43.854ZM303.523 12.032H333.764C335.506 12.032 336.932 13.456 336.932 15.199V34.6239C336.932 36.3669 335.506 37.792 333.764 37.792H303.523C301.781 37.792 300.355 36.3669 300.355 34.6239V15.199C300.355 13.456 301.781 12.032 303.523 12.032ZM303.523 5.96996H333.764C338.84 5.96996 342.993 10.123 342.993 15.199V34.6239C342.993 39.6999 338.84 43.853 333.764 43.853H303.523C298.447 43.853 294.294 39.6999 294.294 34.6239V15.199C294.294 10.123 298.447 5.96996 303.523 5.96996ZM288.068 43.854H248.665C243.591 43.854 239.436 39.701 239.436 34.625V5.96996H245.498V34.6239C245.498 36.3649 246.924 37.792 248.666 37.792H288.069V43.854H288.068ZM360.291 5.96996H368.661V12.032H360.291C358.549 12.032 357.123 13.458 357.123 15.199V34.6239C357.123 36.3669 358.549 37.792 360.291 37.792H390.532C392.274 37.792 393.7 36.3669 393.7 34.6239V27.949H376.821V21.8869H399.764C399.764 25.4999 399.761 31.0119 399.761 34.6239C399.761 39.6999 395.608 43.853 390.532 43.853H360.291C355.215 43.853 351.062 39.6999 351.062 34.6239V15.199C351.062 10.123 355.215 5.96996 360.291 5.96996Z" fill="#040007"/>
<path fill-rule="evenodd" clip-rule="evenodd" d="M399.765 6.56696C399.758 6.35896 399.655 6.18897 399.457 6.06097C399.256 5.92997 399.021 5.94096 398.751 6.08796L395.498 8.27897L392.212 6.08796C391.97 5.96096 391.748 5.97496 391.544 6.12696C391.34 6.27896 391.239 6.42796 391.239 6.57696V11.452C391.232 11.857 391.432 12.061 391.838 12.061C392.242 12.061 392.451 11.857 392.457 11.452V7.70097L394.9 9.35496C395.121 9.54896 395.318 9.64596 395.491 9.64196C395.665 9.63896 395.869 9.53896 396.104 9.34496L398.546 7.69096L398.556 11.463C398.556 11.854 398.757 12.05 399.162 12.05C399.563 12.05 399.764 11.854 399.764 11.463V6.56696H399.765ZM382.917 8.42097C382.917 7.59697 383.327 7.18597 384.143 7.18597H387.793C388.609 7.19897 389.018 7.61097 389.018 8.42097V9.62896C389.018 10.445 388.61 10.853 387.793 10.853H384.143C383.333 10.853 382.928 10.448 382.928 9.63897L382.917 8.42097ZM390.236 8.42097C390.236 6.79797 389.423 5.98797 387.803 5.98797L384.142 5.97796C382.526 5.97796 381.716 6.79096 381.709 8.41096V9.62896C381.709 11.258 382.522 12.071 384.152 12.071H387.802C389.421 12.071 390.235 11.258 390.235 9.62896V8.42097H390.236ZM370.035 10.833H370.815C370.967 10.833 371.093 10.958 371.093 11.111V11.793C371.093 11.946 370.967 12.071 370.815 12.071H370.035C369.882 12.071 369.757 11.946 369.757 11.793V11.111C369.757 10.958 369.882 10.833 370.035 10.833ZM372.181 8.42097V9.62896C372.181 11.258 372.991 12.071 374.614 12.071H380.098C380.496 12.071 380.697 11.867 380.702 11.463C380.704 11.057 380.507 10.853 380.109 10.853H374.625C373.809 10.853 373.4 10.445 373.4 9.62896V8.42097C373.4 7.61097 373.804 7.19897 374.614 7.18597H380.098C380.49 7.18597 380.687 6.98496 380.687 6.58396C380.687 6.17896 380.49 5.97796 380.098 5.97796L374.614 5.98797C372.99 5.98797 372.181 6.79797 372.181 8.42097Z" fill="#EE7402"/>
</svg>
